Genre:Sci-Fi | Thriller
Language:English
IMDb:http://www.imdb.com/title/tt1564585/
Source:DVD9 R5


General
Complete name :Skyline.2010.R5.H264.Feel-Free
Format : MPEG-4
Format profile : Base Media
Codec ID : mp42
File size : 851 MiB
Duration : 1h 28mn
Overall bit rate : 1 341 Kbps 
Video #1
Codec ID : avc1
Codec ID/Info : Advanced Video Coding
Duration : 1h 28mn
Bit rate mode : Variable
Bit rate : 860 Kbps
Width : 720 pixels
Height : 384 pixels
Display aspect ratio : 1.875
Frame rate mode : Constant
Frame rate : 23.976 fps
Resolution : 24 bits
Colorimetry : 4:2:0
Scan type : Progressive
Bits/(Pixel*Frame) : 0.130
Stream size : 546 MiB (64%)
Audio #2
ID : 2
Format : AAC
Format/Info : Advanced Audio Codec
Format version : Version 4
Format profile : LC
Format settings, SBR : No
Codec ID : 40
Duration : 1h 28mn
Bit rate mode : Constant
Bit rate : 477 Kbps
Nominal bit rate : 480 Kbps
Channel(s) : 6 channels
Channel positions : Front: L C R, Rear: L R, LFE
Sampling rate : 48.0 KHz
Resolution : 16 bits
Stream size : 303 MiB (36%)

Plot:
Strange lights descend on the city of Los Angeles, drawing people outside like moths to a flame where







================================== 
http://thepiratebay.org/user/hiest
==================================


